<?xml version="1.0" encoding="UTF-8" standalone="no"?>
<!DOCTYPE svg PUBLIC "-//W3C//DTD SVG 1.1//EN" "http://www.w3.org/Graphics/SVG/1.1/DTD/svg11.dtd">
<svg width="100%" height="100%" viewBox="0 0 1334 1334" version="1.1" xmlns="http://www.w3.org/2000/svg" xmlns:xlink="http://www.w3.org/1999/xlink" xml:space="preserve" xmlns:serif="http://www.serif.com/" style="fill-rule:evenodd;clip-rule:evenodd;stroke-linejoin:round;stroke-miterlimit:2;">
    <g transform="matrix(1.33333,0,0,1.33333,0,0)">
        <g transform="matrix(0.342466,0,0,0.351487,61.6438,50.0963)">
            <g transform="matrix(1.13379,0,0,1.10469,-10.8163,-224.03)">
                <path d="M1800,1030.75C1800,848.204 1651.8,700 1469.25,700L807.75,700C625.204,700 477,848.204 477,1030.75L477,1692.25C477,1874.8 625.204,2023 807.75,2023L1469.25,2023C1651.8,2023 1800,1874.8 1800,1692.25L1800,1030.75Z" style="fill:rgb(253,255,252);"/>
            </g>
            <g transform="matrix(0.983333,0,0,1.95031,395,608.118)">
                <path d="M1500,304.25C1500,282.035 1463.29,264 1418.07,264L381.933,264C336.713,264 300,282.035 300,304.25L300,384.75C300,406.965 336.713,425 381.933,425L1418.07,425C1463.29,425 1500,406.965 1500,384.75L1500,304.25Z" style="fill:#d20707;"/>
            </g>
            <g transform="matrix(6.02118e-17,0.983333,-1.95031,1.19422e-16,1951.88,395)">
                <path d="M1500,304.25C1500,282.035 1465.15,264 1422.22,264L377.782,264C334.853,264 300,282.035 300,304.25L300,384.75C300,406.965 334.853,425 377.782,425L1422.22,425C1465.15,425 1500,406.965 1500,384.75L1500,304.25Z" style="fill:#d20707;"/>
            </g>
        </g>
    </g>
</svg>
