<?xml version="1.0" encoding="UTF-8" standalone="no"?>
<!DOCTYPE svg PUBLIC "-//W3C//DTD SVG 1.1//EN" "http://www.w3.org/Graphics/SVG/1.1/DTD/svg11.dtd">
<svg width="100%" height="100%" viewBox="0 0 1334 1334" version="1.1" xmlns="http://www.w3.org/2000/svg" xmlns:xlink="http://www.w3.org/1999/xlink" xml:space="preserve" xmlns:serif="http://www.serif.com/" style="fill-rule:evenodd;clip-rule:evenodd;stroke-linejoin:round;stroke-miterlimit:2;">
    <g transform="matrix(1.33333,0,0,1.33333,0,0)">
        <g transform="matrix(1.8664,0,0,0.536576,-434.244,174.701)">
            <path d="M553.333,391.061C553.333,340.803 541.603,300 527.154,300L476.179,300C461.731,300 450,340.803 450,391.061L450,673.939C450,724.197 461.731,765 476.179,765L527.154,765C541.603,765 553.333,724.197 553.333,673.939L553.333,391.061Z" style="fill:rgb(253,255,252);"/>
        </g>
        <g transform="matrix(0.280417,-0.239189,0.416845,0.38957,258.869,380.911)">
            <path d="M983,350C983,322.404 948.539,300 906.094,300L626.906,300C584.461,300 550,322.404 550,350C550,377.596 584.461,400 626.906,400L906.094,400C948.539,400 983,377.596 983,350Z" style="fill:rgb(253,255,252);"/>
        </g>
        <g transform="matrix(-0.2863,-0.225897,-0.413387,0.417039,746.385,362.861)">
            <path d="M983,350C983,322.404 947.156,300 903.005,300L629.995,300C585.844,300 550,322.404 550,350C550,377.596 585.844,400 629.995,400L903.005,400C947.156,400 983,377.596 983,350Z" style="fill:rgb(253,255,252);"/>
        </g>
        <g transform="matrix(-0.00146141,0.589811,-0.739296,0.0127295,811.448,205.155)">
            <path d="M983,350C983,322.404 954.919,300 920.331,300L612.669,300C578.081,300 550,322.404 550,350C550,377.596 578.081,400 612.669,400L920.331,400C954.919,400 983,377.596 983,350Z" style="fill:rgb(253,255,252);"/>
        </g>
        <g transform="matrix(-0.00145774,0.588328,-0.739296,0.0127295,716.359,206.613)">
            <path d="M983,350C983,322.404 954.848,300 920.173,300L612.827,300C578.152,300 550,322.404 550,350C550,377.596 578.152,400 612.827,400L920.173,400C954.848,400 983,377.596 983,350Z" style="fill:rgb(253,255,252);"/>
        </g>
        <g transform="matrix(1.12251,0,0,1.12251,-1415.37,-636.951)">
            <circle cx="1885.86" cy="803.555" r="23.555" style="fill:rgb(253,255,252);"/>
        </g>
        <g transform="matrix(1.12251,0,0,1.12251,-1818.43,-636.951)">
            <circle cx="1885.86" cy="803.555" r="23.555" style="fill:rgb(253,255,252);"/>
        </g>
        <g transform="matrix(1.12251,0,0,1.12251,-1159.59,-687.409)">
            <circle cx="1480" cy="850" r="50" style="fill:rgb(253,255,252);"/>
        </g>
    </g>
</svg>
