<svg width="25" height="24" viewBox="0 0 25 24" fill="none" xmlns="http://www.w3.org/2000/svg">
<path d="M21.3018 19.0503L15.8858 13.85C16.7188 12.8 17.1875 11.45 17.1875 9.99968C17.1875 6.39968 14.167 3.5 10.417 3.5C6.66701 3.5 3.64551 6.40064 3.64551 10.0006C3.64551 13.6006 6.66601 16.5003 10.416 16.5003C11.9268 16.5003 13.2803 16.0503 14.4268 15.2506L19.8438 20.451C20.0518 20.6507 20.3125 20.751 20.5733 20.751C20.834 20.751 21.0938 20.6507 21.3028 20.451C21.7188 20.0506 21.7188 19.4506 21.3018 19.0503L21.3018 19.0503ZM10.417 14.5006C7.81251 14.5006 5.72951 12.501 5.72951 10.0006C5.72951 7.50032 7.81251 5.50064 10.417 5.50064C13.0215 5.50064 15.1045 7.50032 15.1045 10.0006C15.1045 12.5 13.0205 14.5006 10.417 14.5006Z" fill="#313638"/>
</svg>
